<svg width="239" height="205" viewBox="0 0 239 205" fill="none" xmlns="http://www.w3.org/2000/svg">
<path d="M114.167 101.436C117.559 99.91 121.441 99.91 124.833 101.436L207.768 138.741C217.99 143.339 217.99 157.854 207.767 162.452L124.833 199.757C121.441 201.283 117.559 201.283 114.167 199.757L31.2325 162.452C21.0097 157.854 21.0097 143.339 31.2325 138.741L114.167 101.436Z" fill="#2C5744" stroke="#E8E7E3" stroke-width="4"/>
<g filter="url(#filter0_dd_9865_78923)">
<path d="M113.389 51.5923C117.278 49.8573 121.722 49.8573 125.611 51.5923L208.292 88.476C220.144 93.7632 220.144 110.586 208.292 115.874L125.611 152.757C121.722 154.492 117.278 154.492 113.389 152.757L30.708 115.874C18.856 110.586 18.856 93.7632 30.7081 88.476L113.389 51.5923Z" fill="#A54A4A"/>
<path d="M114.204 53.4188C117.575 51.9151 121.425 51.9151 124.796 53.4188L207.477 90.3025C217.749 94.8847 217.749 109.465 207.477 114.047L124.796 150.931C121.425 152.434 117.575 152.434 114.204 150.931L31.5228 114.047C21.2511 109.465 21.2511 94.8847 31.5228 90.3025L114.204 53.4188Z" stroke="#E8E7E3" stroke-width="4"/>
</g>
<path d="M114.167 4.59184C117.559 3.06624 121.441 3.06624 124.833 4.59184L207.768 41.897C217.99 46.4953 217.99 61.0102 207.767 65.6086L124.833 102.914C121.441 104.439 117.559 104.439 114.167 102.914L31.2325 65.6086C21.0097 61.0102 21.0097 46.4953 31.2325 41.897L114.167 4.59184Z" fill="#47616C" stroke="#E8E7E3" stroke-width="4"/>
<path d="M115.652 184.212L111.806 175.965L109.956 176.827L113.802 185.075L115.652 184.212ZM117.276 179.252C116.908 178.463 117.073 177.955 117.874 177.582C118.675 177.208 119.182 177.402 119.55 178.192L121.16 181.644L122.88 180.842L121.193 177.225C120.336 175.387 119.239 175.095 117.648 175.837C116.682 176.287 116.351 176.93 116.329 177.499L116.011 176.816L114.397 177.568L117.166 183.506L118.886 182.704L117.276 179.252ZM121.057 174.463L121.705 175.853L122.624 175.424L124.745 179.972L126.465 179.17L124.344 174.622L125.687 173.996L125.039 172.606L123.696 173.232L123.586 172.996C123.317 172.419 123.559 172.077 124.112 171.818C124.242 171.758 124.412 171.693 124.588 171.639L123.94 170.249C123.753 170.279 123.436 170.398 123.153 170.53C121.727 171.195 121.201 172.373 121.871 173.81L121.976 174.034L121.057 174.463ZM130.405 171.925L129.636 170.276C129.56 170.297 129.366 170.373 129.295 170.406C128.341 170.851 128.043 171.535 128.027 172.116L127.681 171.374L126.067 172.126L128.836 178.065L130.556 177.262L128.995 173.916C128.638 173.151 128.934 172.554 129.629 172.23C129.912 172.098 130.153 172 130.405 171.925ZM137.136 174.194L138.703 173.463L136.884 169.564C136.12 167.926 134.897 167.794 133.165 168.601C131.409 169.42 130.874 170.487 131.391 171.781L133.088 170.989C132.941 170.613 133.014 170.278 133.78 169.921C134.511 169.58 134.898 169.672 135.035 169.967C135.189 170.297 135.05 170.491 134.589 170.763L133.489 171.419C132.029 172.287 131.66 173.248 132.198 174.402C132.698 175.475 133.742 175.992 135.144 175.338C136.099 174.893 136.58 174.295 136.79 173.452L137.136 174.194ZM135.775 171.615L135.907 171.898C136.226 172.582 135.749 173.435 134.901 173.831C134.418 174.056 134.036 173.976 133.838 173.552C133.69 173.233 133.769 172.881 134.361 172.519L135.331 171.923C135.508 171.812 135.674 171.706 135.775 171.615ZM143.195 166.277C142.514 165.031 141.351 164.784 139.726 165.542C137.852 166.416 137.506 167.581 138.045 168.736C138.589 169.902 139.533 170.05 140.958 169.6L141.633 169.386C142.36 169.162 142.638 169.204 142.787 169.522C142.946 169.864 142.775 170.173 142.009 170.53C141.208 170.904 140.831 170.836 140.583 170.364L138.886 171.155C139.476 172.328 140.539 172.822 142.624 171.85C144.545 170.955 145.023 169.828 144.435 168.567C143.886 167.389 142.925 167.235 141.311 167.743L140.648 167.952C140.05 168.145 139.826 168.034 139.705 167.775C139.568 167.48 139.669 167.175 140.341 166.862C140.977 166.565 141.276 166.713 141.498 167.068L143.195 166.277ZM145.781 162.934L144.973 161.202L143.253 162.004L144.061 163.736L143.142 164.164L143.79 165.555L144.709 165.126L145.907 167.694C146.577 169.132 147.715 169.39 149.141 168.725C149.447 168.582 149.719 168.427 149.951 168.247L149.303 166.857C149.119 166.985 148.983 167.063 148.818 167.14C148.264 167.398 147.857 167.387 147.561 166.751L146.429 164.324L147.819 163.676L147.171 162.285L145.781 162.934ZM152.606 161.573L151.837 159.923C151.76 159.944 151.566 160.021 151.496 160.053C150.541 160.498 150.243 161.182 150.228 161.764L149.881 161.021L148.267 161.774L151.036 167.712L152.757 166.91L151.196 163.564C150.839 162.798 151.135 162.201 151.83 161.877C152.112 161.745 152.354 161.647 152.606 161.573ZM158.095 164.636C159.038 164.196 159.369 163.554 159.391 162.985L159.709 163.668L161.323 162.915L158.554 156.977L156.834 157.779L158.444 161.231C158.812 162.021 158.647 162.528 157.869 162.891C157.092 163.253 156.585 163.059 156.217 162.27L154.608 158.818L152.887 159.62L154.574 163.237C155.431 165.075 156.528 165.366 158.095 164.636ZM162.74 154.81C160.501 155.854 160.325 157.629 161.143 159.384C161.962 161.14 163.435 162.146 165.674 161.102C167.547 160.228 168.028 159.014 167.529 157.483L165.809 158.285C165.922 158.835 165.695 159.241 164.965 159.582C164.058 160.005 163.365 159.596 162.887 158.571C162.409 157.546 162.541 156.753 163.449 156.33C164.179 155.989 164.636 156.078 164.985 156.517L166.705 155.715C165.852 154.349 164.613 153.937 162.74 154.81ZM169.04 152.088L168.232 150.356L166.512 151.158L167.32 152.89L166.401 153.318L167.049 154.708L167.968 154.28L169.166 156.848C169.836 158.286 170.975 158.544 172.4 157.879C172.707 157.736 172.979 157.581 173.21 157.401L172.562 156.011C172.378 156.139 172.242 156.217 172.077 156.294C171.524 156.552 171.117 156.541 170.82 155.905L169.688 153.478L171.079 152.83L170.43 151.439L169.04 152.088ZM176.687 155.966C177.63 155.527 177.962 154.884 177.983 154.315L178.302 154.998L179.916 154.245L177.147 148.307L175.427 149.109L177.036 152.562C177.404 153.351 177.239 153.858 176.462 154.221C175.684 154.584 175.178 154.389 174.81 153.6L173.2 150.148L171.48 150.95L173.166 154.567C174.023 156.405 175.12 156.697 176.687 155.966ZM182.937 147.429L182.168 145.78C182.092 145.801 181.898 145.877 181.827 145.91C180.873 146.355 180.575 147.039 180.559 147.62L180.213 146.878L178.599 147.63L181.368 153.568L183.088 152.766L181.527 149.42C181.17 148.654 181.466 148.058 182.161 147.733C182.444 147.602 182.685 147.504 182.937 147.429ZM190.304 145.772C189.425 143.887 187.982 143.039 185.803 144.056C183.482 145.138 183.488 147.029 184.23 148.619C185.109 150.504 186.569 151.358 188.831 150.303C190.61 149.474 191.133 148.197 190.725 146.982L189.028 147.773C189.062 148.245 188.907 148.59 188.188 148.925C187.257 149.359 186.669 149.174 186.153 148.282L190.5 146.255C190.447 146.079 190.37 145.914 190.304 145.772ZM185.627 147.093C185.41 146.29 185.611 145.766 186.424 145.387C187.366 144.948 187.886 145.293 188.242 145.873L185.627 147.093Z" fill="#E8E7E3"/>
<path d="M126.375 131.137L128.401 130.192L121.563 123.34L119.23 124.428L120.083 134.071L122.11 133.126L121.921 131.521L125.267 129.961L126.375 131.137ZM121.715 129.695L121.27 125.757L124.001 128.629L121.715 129.695ZM129.887 122.055C129.015 122.461 128.563 123.031 128.389 123.671L128.119 123.094L126.505 123.847L130.241 131.858L131.961 131.056L130.78 128.523C131.35 128.731 132.031 128.714 132.82 128.346C134.894 127.379 135.06 125.796 134.169 123.887C133.279 121.979 131.96 121.088 129.887 122.055ZM131.723 127.008C130.733 127.469 130.038 127.148 129.527 126.052C129.016 124.956 129.229 124.212 130.207 123.756C131.196 123.294 131.915 123.605 132.426 124.701C132.937 125.796 132.713 126.546 131.723 127.008ZM137.373 118.564C136.501 118.97 136.049 119.54 135.875 120.181L135.605 119.603L133.991 120.356L137.727 128.368L139.447 127.566L138.266 125.032C138.836 125.24 139.517 125.224 140.307 124.855C142.38 123.889 142.546 122.305 141.656 120.397C140.766 118.488 139.446 117.597 137.373 118.564ZM139.209 123.517C138.219 123.978 137.524 123.657 137.013 122.561C136.502 121.466 136.715 120.721 137.693 120.265C138.682 119.804 139.401 120.114 139.912 121.21C140.423 122.305 140.199 123.055 139.209 123.517ZM144.941 122.479L145.955 122.007L142.109 113.759L140.389 114.561L143.905 122.102C144.125 122.573 144.47 122.699 144.941 122.479ZM144.269 114.602L145.989 113.8L145.281 112.28L143.56 113.082L144.269 114.602ZM147.406 121.33L149.126 120.528L146.357 114.589L144.637 115.392L147.406 121.33ZM150.542 112.423C148.303 113.467 148.127 115.242 148.946 116.997C149.764 118.753 151.237 119.758 153.476 118.715C155.349 117.841 155.83 116.627 155.331 115.095L153.611 115.898C153.724 116.447 153.498 116.854 152.767 117.195C151.86 117.618 151.167 117.209 150.689 116.184C150.211 115.159 150.344 114.366 151.251 113.943C151.981 113.602 152.438 113.69 152.787 114.13L154.507 113.328C153.655 111.961 152.415 111.549 150.542 112.423ZM161.202 114.897L162.769 114.166L160.95 110.266C160.187 108.628 158.963 108.496 157.231 109.304C155.476 110.122 154.94 111.19 155.458 112.483L157.154 111.692C157.008 111.316 157.081 110.98 157.846 110.623C158.577 110.283 158.964 110.375 159.101 110.669C159.255 110.999 159.116 111.193 158.655 111.466L157.555 112.122C156.095 112.989 155.726 113.95 156.264 115.105C156.764 116.177 157.809 116.694 159.211 116.04C160.165 115.595 160.647 114.998 160.856 114.154L161.202 114.897ZM159.842 112.318L159.973 112.601C160.292 113.284 159.815 114.138 158.967 114.533C158.484 114.758 158.102 114.678 157.904 114.254C157.756 113.936 157.835 113.583 158.427 113.221L159.397 112.626C159.574 112.514 159.74 112.408 159.842 112.318ZM163.557 106.569L162.75 104.837L161.03 105.639L161.837 107.371L160.918 107.8L161.567 109.19L162.486 108.761L163.683 111.33C164.354 112.767 165.492 113.025 166.918 112.36C167.224 112.218 167.496 112.062 167.728 111.882L167.079 110.492C166.896 110.621 166.76 110.699 166.595 110.775C166.041 111.034 165.634 111.023 165.338 110.386L164.206 107.959L165.596 107.311L164.948 105.921L163.557 106.569ZM165.676 104.62L167.396 103.818L166.687 102.298L164.967 103.1L165.676 104.62ZM168.813 111.348L170.533 110.545L167.764 104.607L166.044 105.409L168.813 111.348ZM170.341 107.02C171.203 108.87 172.738 109.732 175.001 108.677C177.263 107.623 177.589 105.893 176.727 104.043C175.864 102.193 174.329 101.331 172.067 102.386C169.805 103.441 169.478 105.171 170.341 107.02ZM172.084 106.207C171.607 105.182 171.75 104.384 172.775 103.906C173.801 103.428 174.505 103.831 174.983 104.856C175.461 105.881 175.317 106.68 174.292 107.158C173.267 107.636 172.562 107.232 172.084 106.207ZM179.408 102.204C179.04 101.415 179.205 100.907 180.006 100.534C180.808 100.16 181.314 100.354 181.682 101.144L183.292 104.596L185.012 103.794L183.326 100.177C182.468 98.3387 181.371 98.047 179.781 98.7887C178.815 99.2392 178.483 99.8815 178.462 100.451L178.143 99.7675L176.529 100.52L179.298 106.458L181.018 105.656L179.408 102.204Z" fill="#E8E7E3"/>
<path d="M120.831 84.4528C123.883 83.0299 124.28 80.6213 123.126 78.1471C121.973 75.6729 119.872 74.429 116.821 75.852C113.769 77.2749 113.372 79.6835 114.526 82.1577C115.679 84.6319 117.78 85.8758 120.831 84.4528ZM120.057 82.7916C118.454 83.5388 117.221 82.9235 116.446 81.2622C115.671 79.6009 115.993 78.2604 117.595 77.5132C119.198 76.766 120.431 77.3813 121.206 79.0426C121.981 80.7039 121.659 82.0444 120.057 82.7916ZM127.799 75.5811L127.029 73.9317C126.953 73.9528 126.759 74.029 126.688 74.0619C125.734 74.5069 125.436 75.1909 125.42 75.7721L125.074 75.0298L123.46 75.7825L126.229 81.7206L127.949 80.9185L126.389 77.5724C126.032 76.8066 126.327 76.2098 127.023 75.8856C127.305 75.7538 127.546 75.6557 127.799 75.5811ZM132.231 71.6927L132.489 72.2464C131.932 71.9753 131.218 71.95 130.369 72.3456C128.472 73.2301 128.147 74.7159 128.96 76.4596C129.773 78.2034 131.12 78.909 133.017 78.0245C133.783 77.6674 134.21 77.1672 134.405 76.6317L134.696 77.2561C135.091 78.1044 134.808 78.6957 133.924 79.1078C133.052 79.5143 132.588 79.4726 132.243 78.9164L130.546 79.7076C131.384 81.167 132.656 81.4635 134.6 80.557C136.65 79.601 137.202 78.1388 136.367 76.3479L133.845 70.94L132.231 71.6927ZM132.679 76.3461C131.749 76.7801 131.087 76.5003 130.692 75.652C130.296 74.8037 130.507 74.1174 131.438 73.6833C132.345 73.2603 133.03 73.5291 133.425 74.3774C133.821 75.2257 133.587 75.923 132.679 76.3461ZM141.866 74.4291L143.433 73.6984L141.614 69.7986C140.851 68.1609 139.627 68.0286 137.895 68.8362C136.14 69.6548 135.604 70.722 136.122 72.0156L137.818 71.2245C137.671 70.8482 137.745 70.5129 138.51 70.1558C139.241 69.8152 139.628 69.9072 139.765 70.2017C139.919 70.5316 139.78 70.7256 139.319 70.9979L138.219 71.6542C136.759 72.5216 136.39 73.4827 136.928 74.6374C137.428 75.7095 138.472 76.2266 139.875 75.5728C140.829 75.1278 141.31 74.5303 141.52 73.6869L141.866 74.4291ZM140.506 71.8504L140.637 72.1332C140.956 72.8165 140.479 73.6701 139.631 74.0656C139.148 74.2909 138.766 74.2107 138.568 73.7865C138.42 73.4684 138.499 73.1158 139.091 72.7539L140.061 72.1581C140.238 72.0467 140.404 71.9407 140.506 71.8504ZM144.943 68.7913C144.575 68.0019 144.74 67.4946 145.541 67.121C146.343 66.7474 146.849 66.9415 147.217 67.7309L148.827 71.1831L150.547 70.3809L148.86 66.7639C148.003 64.9259 146.906 64.6342 145.316 65.3759C144.35 65.8264 144.018 66.4687 143.997 67.0381L143.678 66.3547L142.064 67.1074L144.833 73.0455L146.553 72.2434L144.943 68.7913ZM148.802 63.0043L150.522 62.2021L149.814 60.6823L148.093 61.4844L148.802 63.0043ZM151.939 69.7318L153.659 68.9297L150.89 62.9915L149.17 63.7937L151.939 69.7318ZM152.772 63.7922L155.612 62.4681L154.268 67.154L154.84 68.3793L160.024 65.9619L159.381 64.5834L156.435 65.957L157.732 61.2931L157.16 60.0678L152.13 62.4137L152.772 63.7922ZM164.999 63.6421L166.566 62.9114L164.747 59.0116C163.983 57.3739 162.76 57.2416 161.028 58.0492C159.272 58.8678 158.737 59.935 159.254 61.2286L160.951 60.4375C160.804 60.0612 160.877 59.7259 161.643 59.3688C162.374 59.0282 162.761 59.1202 162.898 59.4147C163.052 59.7446 162.913 59.9386 162.452 60.2109L161.352 60.8672C159.892 61.7346 159.523 62.6957 160.061 63.8504C160.561 64.9225 161.605 65.4396 163.007 64.7858C163.962 64.3408 164.443 63.7433 164.652 62.8999L164.999 63.6421ZM163.638 61.0634L163.77 61.3462C164.089 62.0295 163.612 62.8831 162.764 63.2786C162.28 63.5039 161.899 63.4237 161.701 62.9995C161.553 62.6814 161.632 62.3288 162.224 61.9669L163.194 61.3711C163.371 61.2597 163.537 61.1537 163.638 61.0634ZM167.354 55.3144L166.547 53.5824L164.826 54.3845L165.634 56.1165L164.715 56.545L165.363 57.9353L166.282 57.5068L167.48 60.0752C168.15 61.5126 169.289 61.7706 170.715 61.1058C171.021 60.963 171.293 60.8075 171.524 60.6278L170.876 59.2375C170.692 59.3662 170.556 59.4439 170.391 59.5209C169.838 59.7791 169.431 59.768 169.134 59.1317L168.002 56.7046L169.393 56.0563L168.744 54.6661L167.354 55.3144ZM169.473 53.3654L171.193 52.5633L170.484 51.0434L168.764 51.8456L169.473 53.3654ZM172.61 60.093L174.33 59.2908L171.561 53.3527L169.841 54.1548L172.61 60.093ZM174.137 55.7659C175 57.6157 176.535 58.4777 178.797 57.4228C181.059 56.368 181.386 54.6379 180.523 52.7882C179.661 50.9384 178.126 50.0764 175.863 51.1312C173.601 52.1861 173.275 53.9162 174.137 55.7659ZM175.881 54.9528C175.403 53.9278 175.547 53.1291 176.572 52.6511C177.597 52.1731 178.302 52.5762 178.78 53.6013C179.258 54.6263 179.114 55.425 178.089 55.903C177.064 56.3809 176.359 55.9778 175.881 54.9528ZM183.205 50.9495C182.837 50.1601 183.002 49.6528 183.803 49.2793C184.604 48.9057 185.111 49.0998 185.479 49.8892L187.089 53.3413L188.809 52.5392L187.122 48.9221C186.265 47.0841 185.168 46.7924 183.578 47.5341C182.611 47.9846 182.28 48.627 182.258 49.1963L181.94 48.513L180.326 49.2657L183.095 55.2038L184.815 54.4017L183.205 50.9495Z" fill="#E8E7E3"/>
<defs>
<filter id="filter0_dd_9865_78923" x="17.8188" y="50.291" width="203.362" height="111.768" filterUnits="userSpaceOnUse" color-interpolation-filters="sRGB">
<feFlood flood-opacity="0" result="BackgroundImageFix"/>
<feColorMatrix in="SourceAlpha" type="matrix" values="0 0 0 0 0 0 0 0 0 0 0 0 0 0 0 0 0 0 127 0" result="hardAlpha"/>
<feOffset dy="4"/>
<feGaussianBlur stdDeviation="2"/>
<feComposite in2="hardAlpha" operator="out"/>
<feColorMatrix type="matrix" values="0 0 0 0 0 0 0 0 0 0 0 0 0 0 0 0 0 0 0.25 0"/>
<feBlend mode="normal" in2="BackgroundImageFix" result="effect1_dropShadow_9865_78923"/>
<feColorMatrix in="SourceAlpha" type="matrix" values="0 0 0 0 0 0 0 0 0 0 0 0 0 0 0 0 0 0 127 0" result="hardAlpha"/>
<feOffset dy="4"/>
<feGaussianBlur stdDeviation="2"/>
<feComposite in2="hardAlpha" operator="out"/>
<feColorMatrix type="matrix" values="0 0 0 0 0 0 0 0 0 0 0 0 0 0 0 0 0 0 0.25 0"/>
<feBlend mode="normal" in2="effect1_dropShadow_9865_78923" result="effect2_dropShadow_9865_78923"/>
<feBlend mode="normal" in="SourceGraphic" in2="effect2_dropShadow_9865_78923" result="shape"/>
</filter>
</defs>
</svg>
